<?xml version="1.0" encoding="utf-8"?>
<!-- Generator: Adobe Illustrator 27.7.0, SVG Export Plug-In . SVG Version: 6.00 Build 0)  -->
<svg version="1.1" xmlns="http://www.w3.org/2000/svg" xmlns:xlink="http://www.w3.org/1999/xlink" x="0px" y="0px"
	 viewBox="0 0 1000 1000" style="enable-background:new 0 0 1000 1000;" xml:space="preserve">
<style type="text/css">
	.st0{display:none;}
	.st1{fill:#DC2327;}
	.st2{fill:#FFFFFF;}
	.st3{fill:#F1F2F2;}
	.st4{display:inline;fill:#243E90;}
	.st5{display:inline;fill:#FFFFFF;}
	.st6{font-family:'FacebookLetterFaces';}
	.st7{font-size:521.4363px;}
	.st8{letter-spacing:13;}
	.st9{display:inline;fill:#F1F2F2;}
	.st10{fill:#FFFFFF;}
</style>
<g id="Layer_1" class="st0">
	<path class="st1" d="M908.37,770.53H113.63c-27.47,0-49.73-22.27-49.73-49.73V279.2c0-27.47,22.27-49.73,49.73-49.73h794.74
		c27.47,0,49.73,22.27,49.73,49.73v441.6C958.1,748.26,935.83,770.53,908.37,770.53z"/>
	<path class="st2" d="M379.75,634.17l-58.78-87.78h-47.42v87.78H213.2V359.86h125.4c32.65,0,58.06,7.97,76.22,23.9
		c18.15,15.94,27.23,38.15,27.23,66.62v0.78c0,22.21-5.42,40.3-16.26,54.28c-10.84,13.98-25.02,24.24-42.52,30.76l67.01,97.97
		H379.75z M380.92,453.51c0-13.06-4.18-22.86-12.54-29.39c-8.36-6.53-19.99-9.8-34.88-9.8h-59.96v78.77h61.13
		c14.89,0,26.32-3.53,34.29-10.58c7.97-7.05,11.95-16.46,11.95-28.22V453.51z"/>
	<polygon class="st3" points="568.73,366.13 836.47,500 568.73,633.87 	"/>
	<path class="st4" d="M909.22,769.73H112.78c-27.47,0-49.73-22.27-49.73-49.73V277.38c0-27.47,22.27-49.73,49.73-49.73h796.44
		c27.47,0,49.73,22.27,49.73,49.73V720C958.95,747.47,936.68,769.73,909.22,769.73z"/>
	<path class="st5" d="M379.5,633.12l-58.89-87.95H273.1v87.95h-60.46V358.28h125.64c32.72,0,58.17,7.99,76.37,23.95
		c18.19,15.97,27.29,38.22,27.29,66.75v0.79c0,22.25-5.43,40.38-16.29,54.38c-10.86,14.01-25.07,24.28-42.6,30.82l67.14,98.16H379.5
		z M380.68,452.12c0-13.09-4.19-22.9-12.56-29.45c-8.38-6.54-20.02-9.82-34.94-9.82H273.1v78.92h61.25
		c14.92,0,26.37-3.53,34.36-10.6c7.98-7.07,11.97-16.49,11.97-28.27V452.12z"/>
	<text transform="matrix(1 0 0 1 578.8203 769.7344)" class="st5 st6 st7 st8">f</text>
	<polygon class="st9" points="489.16,359.05 582.43,405.68 489.16,452.31 	"/>
</g>
<g id="Layer_2">
	<path class="st10" d="M196.04,599.37l-43.16-64.45h-34.82v64.45H73.75V397.95h92.08c23.98,0,42.63,5.85,55.97,17.55
		c13.33,11.7,20,28.01,20,48.92v0.58c0,16.31-3.98,29.59-11.94,39.85c-7.96,10.26-18.37,17.8-31.22,22.59l49.2,71.94H196.04z
		 M196.9,466.72c0-9.59-3.07-16.78-9.21-21.58c-6.14-4.79-14.67-7.19-25.61-7.19h-44.02v57.84h44.89c10.93,0,19.32-2.59,25.18-7.77
		c5.85-5.18,8.78-12.08,8.78-20.72V466.72z"/>
	<path class="st10" d="M505.5,551.6c-4.13,11.32-10.03,20.77-17.7,28.34c-7.67,7.58-16.98,13.24-27.91,16.98
		c-10.93,3.74-23.12,5.61-36.54,5.61c-27.05,0-48.34-7.48-63.88-22.44c-15.54-14.96-23.31-37.31-23.31-67.04v-115.1h44.31V511.9
		c0,16.5,3.84,28.92,11.51,37.26c7.67,8.34,18.32,12.52,31.94,12.52c13.62,0,24.26-4.03,31.94-12.08
		c7.67-8.06,11.51-20.14,11.51-36.26V397.95h44.31v113.66C511.69,526.96,509.62,540.29,505.5,551.6z"/>
	<path class="st10" d="M614.41,599.37l49.2-71.94c-12.85-4.79-23.26-12.32-31.22-22.59c-7.96-10.26-11.94-23.55-11.94-39.85v-0.58
		c0-20.91,6.67-37.21,20-48.92c13.34-11.7,31.99-17.55,55.97-17.55h92.08v201.42h-44.31v-64.45h-34.82l-43.16,64.45H614.41z
		 M665.34,467.3c0,8.63,2.93,15.54,8.78,20.72c5.85,5.18,14.24,7.77,25.18,7.77h44.89v-57.84h-44.02c-10.93,0-19.47,2.4-25.61,7.19
		c-6.14,4.8-9.21,11.99-9.21,21.58V467.3z"/>
	<path class="st10" d="M882,599.37V397.95h44.31v201.42H882z"/>
</g>
</svg>
