<?xml version="1.0" encoding="utf-8"?>
<!-- Generator: Adobe Illustrator 27.7.0, SVG Export Plug-In . SVG Version: 6.00 Build 0)  -->
<svg version="1.1" id="Layer_1" xmlns="http://www.w3.org/2000/svg" xmlns:xlink="http://www.w3.org/1999/xlink" x="0px" y="0px"
	 viewBox="0 0 1000 1000" style="enable-background:new 0 0 1000 1000;" xml:space="preserve">
<style type="text/css">
	.st0{fill:#DC2327;}
	.st1{fill:#FFFFFF;}
	.st2{fill:#F1F2F2;}
</style>
<path class="st0" d="M908.37,770.53H113.63c-27.47,0-49.73-22.27-49.73-49.73V279.2c0-27.47,22.27-49.73,49.73-49.73h794.74
	c27.47,0,49.73,22.27,49.73,49.73v441.6C958.1,748.26,935.83,770.53,908.37,770.53z"/>
<path class="st1" d="M379.75,634.17l-58.78-87.78h-47.42v87.78H213.2V359.86h125.4c32.65,0,58.06,7.97,76.22,23.9
	c18.15,15.94,27.23,38.15,27.23,66.62v0.78c0,22.21-5.42,40.3-16.26,54.28c-10.84,13.98-25.02,24.24-42.52,30.76l67.01,97.97H379.75
	z M380.92,453.51c0-13.06-4.18-22.86-12.54-29.39c-8.36-6.53-19.99-9.8-34.88-9.8h-59.96v78.77h61.13
	c14.89,0,26.32-3.53,34.29-10.58c7.97-7.05,11.95-16.46,11.95-28.22V453.51z"/>
<polygon class="st2" points="568.73,366.13 836.47,500 568.73,633.87 "/>
</svg>
